<svg width="18" height="15" viewBox="0 0 18 15" fill="none" xmlns="http://www.w3.org/2000/svg">
<path d="M7.89594 14.0208L6.33344 12.625C5.33344 11.7222 4.4758 10.9167 3.76052 10.2083C3.04524 9.5 2.45496 8.83333 1.98969 8.20833C1.52441 7.58333 1.18413 6.97917 0.968852 6.39583C0.753574 5.8125 0.645935 5.20139 0.645935 4.5625C0.645935 3.25694 1.08344 2.17014 1.95844 1.30208C2.83344 0.434028 3.92371 0 5.22927 0C5.95149 0 6.63899 0.152778 7.29177 0.458333C7.94455 0.763889 8.51399 1.19444 9.0001 1.75C9.48621 1.19444 10.0557 0.763889 10.7084 0.458333C11.3612 0.152778 12.0487 0 12.7709 0C14.0765 0 15.1668 0.434028 16.0418 1.30208C16.9168 2.17014 17.3543 3.25694 17.3543 4.5625C17.3543 5.20139 17.2466 5.8125 17.0314 6.39583C16.8161 6.97917 16.4758 7.58333 16.0105 8.20833C15.5452 8.83333 14.955 9.5 14.2397 10.2083C13.5244 10.9167 12.6668 11.7222 11.6668 12.625L10.1043 14.0208C9.95149 14.1736 9.77788 14.2812 9.58344 14.3438C9.38899 14.4062 9.19455 14.4375 9.0001 14.4375C8.80566 14.4375 8.61121 14.4062 8.41677 14.3438C8.22232 14.2812 8.04871 14.1736 7.89594 14.0208ZM4.6876 8.75H13.3126C13.5348 8.51389 13.7362 8.29514 13.9168 8.09375C14.0973 7.89236 14.264 7.69444 14.4168 7.5H3.58344C3.73621 7.69444 3.90288 7.89236 4.08344 8.09375C4.26399 8.29514 4.46538 8.51389 4.6876 8.75ZM9.0001 12.75C9.5001 12.3056 9.96885 11.8924 10.4064 11.5104C10.8439 11.1285 11.2432 10.7639 11.6043 10.4167H6.39594C6.75705 10.7639 7.15635 11.1285 7.59385 11.5104C8.03135 11.8924 8.5001 12.3056 9.0001 12.75Z" fill="#D0D6E4"/>
</svg>
