<svg width="41" height="40" viewBox="0 0 41 40" fill="none" xmlns="http://www.w3.org/2000/svg">
<mask id="mask0_3694_5572" style="mask-type:alpha" maskUnits="userSpaceOnUse" x="0" y="0" width="41" height="40">
<rect x="0.207275" width="40" height="40" fill="#D9D9D9"/>
</mask>
<g mask="url(#mask0_3694_5572)">
<path d="M7.38682 34.1663C6.54487 34.1663 5.83223 33.8747 5.2489 33.2913C4.66557 32.708 4.3739 31.9954 4.3739 31.1534V8.84592C4.3739 8.00398 4.66557 7.29134 5.2489 6.70801C5.83223 6.12467 6.54487 5.83301 7.38682 5.83301H15.3677C16.2093 5.83301 16.9218 6.12467 17.5052 6.70801C18.0885 7.29134 18.3802 8.00398 18.3802 8.84592V31.1534C18.3802 31.9954 18.0885 32.708 17.5052 33.2913C16.9218 33.8747 16.2093 34.1663 15.3677 34.1663H7.38682ZM25.0468 34.1663C24.2052 34.1663 23.4926 33.8747 22.9093 33.2913C22.326 32.708 22.0343 31.9954 22.0343 31.1534V8.84592C22.0343 8.00398 22.326 7.29134 22.9093 6.70801C23.4926 6.12467 24.2052 5.83301 25.0468 5.83301H33.0277C33.8696 5.83301 34.5822 6.12467 35.1656 6.70801C35.7489 7.29134 36.0406 8.00398 36.0406 8.84592V31.1534C36.0406 31.9954 35.7489 32.708 35.1656 33.2913C34.5822 33.8747 33.8696 34.1663 33.0277 34.1663H25.0468ZM7.38682 31.6663H15.3677C15.5171 31.6663 15.6399 31.6183 15.736 31.5222C15.8324 31.4261 15.8806 31.3031 15.8806 31.1534V8.84592C15.8806 8.6962 15.8324 8.57329 15.736 8.47718C15.6399 8.38106 15.5171 8.33301 15.3677 8.33301H7.38682C7.2371 8.33301 7.11418 8.38106 7.01807 8.47718C6.92196 8.57329 6.8739 8.6962 6.8739 8.84592V31.1534C6.8739 31.3031 6.92196 31.4261 7.01807 31.5222C7.11418 31.6183 7.2371 31.6663 7.38682 31.6663ZM25.0468 31.6663H33.0277C33.1774 31.6663 33.3003 31.6183 33.3964 31.5222C33.4925 31.4261 33.5406 31.3031 33.5406 31.1534V8.84592C33.5406 8.6962 33.4925 8.57329 33.3964 8.47718C33.3003 8.38106 33.1774 8.33301 33.0277 8.33301H25.0468C24.8974 8.33301 24.7746 8.38106 24.6785 8.47718C24.5821 8.57329 24.5339 8.6962 24.5339 8.84592V31.1534C24.5339 31.3031 24.5821 31.4261 24.6785 31.5222C24.7746 31.6183 24.8974 31.6663 25.0468 31.6663ZM13.861 23.2368C13.861 22.882 13.7414 22.5851 13.5022 22.3459C13.2628 22.1065 12.9657 21.9868 12.611 21.9868H10.111C9.75626 21.9868 9.45932 22.1065 9.22015 22.3459C8.98071 22.5851 8.86098 22.882 8.86098 23.2368C8.86098 23.5915 8.98071 23.8886 9.22015 24.128C9.45932 24.3672 9.75626 24.4868 10.111 24.4868H12.611C12.9657 24.4868 13.2628 24.3672 13.5022 24.128C13.7414 23.8886 13.861 23.5915 13.861 23.2368ZM31.5535 23.2368C31.5535 22.882 31.4338 22.5851 31.1943 22.3459C30.9552 22.1065 30.6582 21.9868 30.3035 21.9868H27.7872C27.4325 21.9868 27.1382 22.1065 26.9043 22.3459C26.6704 22.5851 26.5535 22.882 26.5535 23.2368C26.5535 23.5915 26.6731 23.8886 26.9122 24.128C27.1517 24.3672 27.4488 24.4868 27.8035 24.4868H30.3035C30.6582 24.4868 30.9552 24.3672 31.1943 24.128C31.4338 23.8886 31.5535 23.5915 31.5535 23.2368ZM13.861 18.3972C13.861 18.0425 13.7414 17.7454 13.5022 17.5059C13.2628 17.2668 12.9657 17.1472 12.611 17.1472H10.111C9.75626 17.1472 9.45932 17.2668 9.22015 17.5059C8.98071 17.7454 8.86098 18.0425 8.86098 18.3972C8.86098 18.7519 8.98071 19.0488 9.22015 19.288C9.45932 19.5275 9.75626 19.6472 10.111 19.6472H12.611C12.9657 19.6472 13.2628 19.5275 13.5022 19.288C13.7414 19.0488 13.861 18.7519 13.861 18.3972ZM31.5535 18.3972C31.5535 18.0425 31.4338 17.7454 31.1943 17.5059C30.9552 17.2668 30.6582 17.1472 30.3035 17.1472H27.7872C27.4325 17.1472 27.1382 17.2668 26.9043 17.5059C26.6704 17.7454 26.5535 18.0425 26.5535 18.3972C26.5535 18.7519 26.6731 19.0488 26.9122 19.288C27.1517 19.5275 27.4488 19.6472 27.8035 19.6472H30.3035C30.6582 19.6472 30.9552 19.5275 31.1943 19.288C31.4338 19.0488 31.5535 18.7519 31.5535 18.3972ZM13.861 13.5413C13.861 13.1866 13.7414 12.8897 13.5022 12.6505C13.2628 12.4111 12.9657 12.2913 12.611 12.2913H10.111C9.75626 12.2913 9.45932 12.4111 9.22015 12.6505C8.98071 12.8897 8.86098 13.1866 8.86098 13.5413C8.86098 13.8961 8.98071 14.193 9.22015 14.4322C9.45932 14.6716 9.75626 14.7913 10.111 14.7913H12.611C12.9657 14.7913 13.2628 14.6716 13.5022 14.4322C13.7414 14.193 13.861 13.8961 13.861 13.5413ZM31.5535 13.5413C31.5535 13.1866 31.4338 12.8897 31.1943 12.6505C30.9552 12.4111 30.6582 12.2913 30.3035 12.2913H27.7872C27.4325 12.2913 27.1382 12.4111 26.9043 12.6505C26.6704 12.8897 26.5535 13.1866 26.5535 13.5413C26.5535 13.8961 26.6731 14.193 26.9122 14.4322C27.1517 14.6716 27.4488 14.7913 27.8035 14.7913H30.3035C30.6582 14.7913 30.9552 14.6716 31.1943 14.4322C31.4338 14.193 31.5535 13.8961 31.5535 13.5413ZM7.38682 31.6663H6.8739H15.8806H7.38682ZM25.0468 31.6663H24.5339H33.5406H25.0468Z" fill="white"/>
</g>
</svg>
