<svg width="64" height="64" viewBox="0 0 64 64" fill="none" xmlns="http://www.w3.org/2000/svg">
<rect opacity="0.1" width="64" height="64" rx="32" fill="url(#paint0_linear_646_3996)"/>
<mask id="mask0_646_3996" style="mask-type:alpha" maskUnits="userSpaceOnUse" x="12" y="12" width="48" height="48">
<rect x="12" y="12" width="47.2666" height="47.2666" fill="#D9D9D9"/>
</mask>
<g mask="url(#mask0_646_3996)">
<path d="M20.1643 44.5721H39.4457V30.0345H20.1643V44.5721ZM29.805 40.2108C30.6887 40.2108 31.4452 39.9261 32.0746 39.3568C32.7039 38.7874 33.0186 38.1029 33.0186 37.3033C33.0186 36.5038 32.7039 35.8193 32.0746 35.2499C31.4452 34.6805 30.6887 34.3958 29.805 34.3958C28.9212 34.3958 28.1647 34.6805 27.5354 35.2499C26.9061 35.8193 26.5914 36.5038 26.5914 37.3033C26.5914 38.1029 26.9061 38.7874 27.5354 39.3568C28.1647 39.9261 28.9212 40.2108 29.805 40.2108ZM20.1643 47.4796C19.2805 47.4796 18.524 47.1949 17.8947 46.6256C17.2653 46.0562 16.9507 45.3717 16.9507 44.5721V30.0345C16.9507 29.235 17.2653 28.5505 17.8947 27.9811C18.524 27.4117 19.2805 27.127 20.1643 27.127H31.4118V24.2195C31.4118 22.2084 32.1951 20.4942 33.7617 19.0768C35.3283 17.6594 37.223 16.9507 39.4457 16.9507C41.6684 16.9507 43.5631 17.6594 45.1297 19.0768C46.6963 20.4942 47.4796 22.2084 47.4796 24.2195H44.2661C44.2661 23.008 43.7974 21.9783 42.8601 21.1302C41.9228 20.2822 40.7847 19.8582 39.4457 19.8582C38.1067 19.8582 36.9686 20.2822 36.0313 21.1302C35.094 21.9783 34.6253 23.008 34.6253 24.2195V27.127H39.4457C40.3294 27.127 41.086 27.4117 41.7153 27.9811C42.3446 28.5505 42.6593 29.235 42.6593 30.0345V44.5721C42.6593 45.3717 42.3446 46.0562 41.7153 46.6256C41.086 47.1949 40.3294 47.4796 39.4457 47.4796H20.1643Z" fill="url(#paint1_linear_646_3996)"/>
</g>
<defs>
<linearGradient id="paint0_linear_646_3996" x1="0" y1="0" x2="66.4839" y2="16.5983" gradientUnits="userSpaceOnUse">
<stop stop-color="#2D9CDB"/>
<stop offset="1" stop-color="#2DC97A"/>
</linearGradient>
<linearGradient id="paint1_linear_646_3996" x1="16.9507" y1="16.9507" x2="48.6645" y2="24.8683" gradientUnits="userSpaceOnUse">
<stop stop-color="#2D9CDB"/>
<stop offset="1" stop-color="#2DC97A"/>
</linearGradient>
</defs>
</svg>
