<svg width="22" height="33" viewBox="0 0 22 33" fill="none" xmlns="http://www.w3.org/2000/svg">
<path d="M5 11.9998V8.99976H17V11.9998H5ZM3.5 32.9998C2.675 32.9998 1.96875 32.706 1.38125 32.1185C0.79375 31.531 0.5 30.8248 0.5 29.9998V2.99976C0.5 2.17476 0.79375 1.46851 1.38125 0.881006C1.96875 0.293506 2.675 -0.000244141 3.5 -0.000244141H18.5C19.325 -0.000244141 20.0312 0.293506 20.6188 0.881006C21.2063 1.46851 21.5 2.17476 21.5 2.99976V29.9998C21.5 30.8248 21.2063 31.531 20.6188 32.1185C20.0312 32.706 19.325 32.9998 18.5 32.9998H3.5ZM3.5 28.4998V29.9998H18.5V28.4998H3.5ZM3.5 25.4998H18.5V7.49976H3.5V25.4998ZM3.5 4.49976H18.5V2.99976H3.5V4.49976Z" fill="white"/>
</svg>
