<svg width="29" height="31" viewBox="0 0 29 31" fill="none" xmlns="http://www.w3.org/2000/svg">
<path d="M10.1734 28.66V22.1812C8.72449 22.0732 7.2981 21.9219 5.89421 21.7275C4.49032 21.533 3.09185 21.2777 1.69879 20.9616C1.33351 20.8719 1.03865 20.6747 0.814207 20.37C0.589763 20.0655 0.531013 19.7333 0.637957 19.3733C0.744902 19.0133 0.962819 18.7488 1.29171 18.58C1.62087 18.4113 1.9681 18.3719 2.33337 18.4616C4.32921 18.923 6.34407 19.2425 8.37796 19.42C10.4118 19.5972 12.4525 19.6858 14.5 19.6858C16.5475 19.6858 18.5882 19.5972 20.6221 19.42C22.656 19.2425 24.6709 18.923 26.6667 18.4616C27.0492 18.3719 27.4007 18.4109 27.7213 18.5787C28.0416 18.7465 28.2552 19.0087 28.3621 19.3654C28.4691 19.7307 28.406 20.0655 28.173 20.37C27.9402 20.6747 27.641 20.8719 27.2755 20.9616C25.8718 21.2777 24.47 21.533 23.07 21.7275C21.6698 21.9219 20.2553 22.0747 18.8267 22.1858V28.66C18.8267 29.0869 18.6824 29.4447 18.3938 29.7333C18.1052 30.0222 17.7474 30.1666 17.3205 30.1666H11.6796C11.2527 30.1666 10.8949 30.0222 10.6063 29.7333C10.3177 29.4447 10.1734 29.0869 10.1734 28.66ZM14.5021 17.5062C13.631 17.5062 12.9 17.2118 12.3092 16.6229C11.7184 16.034 11.423 15.3044 11.423 14.4341C11.423 13.5891 11.7174 12.8643 12.3063 12.2595C12.8952 11.6548 13.6249 11.3525 14.4955 11.3525C15.3405 11.3525 16.0653 11.6536 16.67 12.2558C17.2748 12.8577 17.5771 13.5815 17.5771 14.427C17.5771 15.2984 17.276 16.0294 16.6738 16.62C16.0716 17.2108 15.3477 17.5062 14.5021 17.5062ZM2.41671 12.6666C1.82282 12.6666 1.32712 12.4679 0.929624 12.0704C0.532124 11.6732 0.333374 11.1761 0.333374 10.5791C0.333374 10.005 0.532124 9.51496 0.929624 9.10913C1.32712 8.70301 1.82435 8.49996 2.42129 8.49996C2.99518 8.49996 3.48504 8.70246 3.89087 9.10746C4.29699 9.51274 4.50004 10.0047 4.50004 10.5833C4.50004 11.1775 4.29754 11.6732 3.89254 12.0704C3.48726 12.4679 2.99532 12.6666 2.41671 12.6666ZM26.5834 12.6666C25.9892 12.6666 25.4935 12.4679 25.0963 12.0704C24.6988 11.6732 24.5 11.1761 24.5 10.5791C24.5 10.005 24.6988 9.51496 25.0963 9.10913C25.4935 8.70301 25.9906 8.49996 26.5875 8.49996C27.1617 8.49996 27.6517 8.70246 28.0575 9.10746C28.4637 9.51274 28.6667 10.0047 28.6667 10.5833C28.6667 11.1775 28.4642 11.6732 28.0592 12.0704C27.6539 12.4679 27.162 12.6666 26.5834 12.6666ZM6.74379 6.49663C6.14962 6.49663 5.65379 6.29801 5.25629 5.90079C4.85907 5.50329 4.66046 5.00607 4.66046 4.40913C4.66046 3.83524 4.85907 3.34524 5.25629 2.93913C5.65379 2.53301 6.15101 2.32996 6.74796 2.32996C7.32212 2.32996 7.81213 2.5326 8.21796 2.93788C8.62407 3.34288 8.82712 3.83468 8.82712 4.41329C8.82712 5.00746 8.62449 5.50329 8.21921 5.90079C7.81421 6.29801 7.3224 6.49663 6.74379 6.49663ZM22.2563 6.49663C21.6624 6.49663 21.1667 6.29801 20.7692 5.90079C20.3717 5.50329 20.173 5.00607 20.173 4.40913C20.173 3.83524 20.3717 3.34524 20.7692 2.93913C21.1667 2.53301 21.6639 2.32996 22.2609 2.32996C22.8348 2.32996 23.3248 2.5326 23.7309 2.93788C24.1367 3.34288 24.3396 3.83468 24.3396 4.41329C24.3396 5.00746 24.1371 5.50329 23.7321 5.90079C23.3271 6.29801 22.8352 6.49663 22.2563 6.49663ZM14.5 4.33329C13.9062 4.33329 13.4105 4.13454 13.013 3.73704C12.6155 3.33982 12.4167 2.84274 12.4167 2.24579C12.4167 1.67163 12.6155 1.18163 13.013 0.775792C13.4105 0.369681 13.9077 0.166626 14.5046 0.166626C15.0785 0.166626 15.5684 0.369127 15.9742 0.774127C16.3803 1.1794 16.5834 1.67135 16.5834 2.24996C16.5834 2.84413 16.3809 3.33982 15.9759 3.73704C15.5706 4.13454 15.0787 4.33329 14.5 4.33329Z" fill="white"/>
</svg>
