<svg width="42" height="43" viewBox="0 0 42 43" fill="none" xmlns="http://www.w3.org/2000/svg">
<mask id="mask0_461_4" style="mask-type:alpha" maskUnits="userSpaceOnUse" x="0" y="0" width="42" height="43">
<rect y="0.17041" width="42" height="42" rx="12" fill="#C4C4C4"/>
</mask>
<g mask="url(#mask0_461_4)">
<rect x="-22" y="-12.8296" width="86" height="67" fill="white"/>
</g>
<path d="M28.911 21.5C29.2293 21.1712 29.5252 20.8417 29.7955 20.5132C31.5053 18.435 32.0335 16.5744 31.283 15.2744C30.5325 13.9744 28.6571 13.5016 26.0023 13.9432C25.5843 14.0127 25.1525 14.1039 24.7103 14.2146C24.5836 13.7669 24.4447 13.3385 24.2936 12.9333C23.3479 10.3969 22.0006 9 20.4999 9C18.9993 9 17.652 10.3969 16.7063 12.9333C16.5552 13.3385 16.4163 13.7669 16.2896 14.2146C15.8475 14.1039 15.4157 14.0127 14.9976 13.9432C12.343 13.5017 10.4675 13.9744 9.71698 15.2744C8.9664 16.5745 9.49467 18.435 11.2045 20.5132C11.4747 20.8417 11.7707 21.1712 12.089 21.5C11.7707 21.8288 11.4747 22.1583 11.2045 22.4868C9.49462 24.565 8.96635 26.4255 9.71693 27.7256C10.6644 29.3667 13.1337 29.3668 14.9976 29.0568C15.4157 28.9873 15.8474 28.8961 16.2895 28.7854C16.4163 29.2331 16.5552 29.6615 16.7062 30.0667C17.652 32.6031 18.9993 34 20.4999 34C22.0006 34 23.3479 32.6031 24.2936 30.0667C24.4447 29.6615 24.5836 29.2331 24.7103 28.7854C25.1525 28.8961 25.5843 28.9873 26.0023 29.0568C27.8662 29.3668 30.3355 29.3667 31.283 27.7256C32.0335 26.4256 31.5053 24.565 29.7955 22.4868C29.5253 22.1583 29.2293 21.8288 28.911 21.5ZM14.7572 27.6118C12.8065 27.9363 11.3965 27.705 10.9855 26.9932C10.5745 26.2813 11.0792 24.9446 12.3356 23.4174C12.5827 23.1171 12.8536 22.8154 13.1453 22.514C13.8582 23.1526 14.6499 23.7807 15.5033 24.3843C15.5989 25.4248 15.7463 26.4249 15.942 27.3629C15.536 27.4645 15.1401 27.5481 14.7572 27.6118ZM15.3879 22.4774C14.9733 22.1556 14.579 21.8292 14.2078 21.5C14.579 21.1709 14.9733 20.8444 15.3879 20.5226C15.3782 20.8462 15.373 21.1721 15.373 21.5C15.373 21.8279 15.3782 22.1538 15.3879 22.4774ZM15.5033 18.6157C14.6499 19.2193 13.8582 19.8474 13.1454 20.486C12.8537 20.1846 12.5827 19.8829 12.3356 19.5826C11.0793 18.0554 10.5746 16.7187 10.9855 16.0068C11.3965 15.295 12.8065 15.0637 14.7573 15.3882C15.1401 15.4519 15.536 15.5355 15.9421 15.6371C15.7464 16.5751 15.599 17.5753 15.5033 18.6157ZM23.9035 17.5623C23.626 17.3906 23.346 17.2231 23.0634 17.0599C22.7812 16.8971 22.4965 16.7385 22.2095 16.5842C22.6963 16.3857 23.1769 16.2072 23.6484 16.05C23.7473 16.5369 23.8325 17.0421 23.9035 17.5623ZM18.0788 13.4451C18.7746 11.579 19.6797 10.4648 20.4999 10.4648C21.3202 10.4648 22.2253 11.579 22.9211 13.4451C23.0597 13.8168 23.1872 14.2104 23.3038 14.6222C22.3927 14.9206 21.4512 15.2928 20.4999 15.7309C19.5487 15.2928 18.6071 14.9206 17.6961 14.6222C17.8127 14.2104 17.9402 13.8167 18.0788 13.4451ZM17.3516 16.05C17.823 16.2072 18.3037 16.3857 18.7904 16.5842C18.5034 16.7385 18.2187 16.8971 17.9365 17.0599C17.6539 17.2231 17.3739 17.3906 17.0964 17.5623C17.1674 17.0421 17.2526 16.5369 17.3516 16.05ZM17.0964 25.4377C17.3739 25.6094 17.6539 25.7769 17.9365 25.9401C18.2187 26.103 18.5034 26.2616 18.7904 26.4158C18.3037 26.6143 17.823 26.7928 17.3516 26.95C17.2526 26.4631 17.1674 25.9579 17.0964 25.4377ZM22.9211 29.5549C22.2253 31.421 21.3202 32.5352 20.4999 32.5352C19.6797 32.5352 18.7746 31.421 18.0788 29.5549C17.9402 29.1832 17.8127 28.7896 17.6961 28.3778C18.6072 28.0794 19.5487 27.7072 20.4999 27.2691C21.4512 27.7072 22.3928 28.0794 23.3038 28.3778C23.1872 28.7896 23.0597 29.1833 22.9211 29.5549ZM23.6483 26.95C23.1769 26.7928 22.6962 26.6144 22.2095 26.4158C22.4965 26.2616 22.7811 26.103 23.0634 25.9401C23.3459 25.7769 23.626 25.6094 23.9035 25.4377C23.8325 25.9579 23.7473 26.4631 23.6483 26.95ZM24.0923 23.5738C23.5178 23.9596 22.9304 24.3257 22.331 24.6715C21.7319 25.0176 21.1212 25.3432 20.4999 25.6479C19.8787 25.3433 19.268 25.0176 18.6689 24.6715C18.0695 24.3257 17.4821 23.9596 16.9076 23.5738C16.8616 22.8968 16.8378 22.2035 16.8378 21.5C16.8378 20.7965 16.8616 20.1032 16.9076 19.4262C17.4821 19.0404 18.0695 18.6743 18.6689 18.3285C19.268 17.9824 19.8787 17.6568 20.4999 17.3521C21.1212 17.6567 21.7319 17.9824 22.331 18.3285C22.9304 18.6743 23.5178 19.0404 24.0923 19.4262C24.1383 20.1032 24.1621 20.7965 24.1621 21.5C24.1621 22.2035 24.1383 22.8968 24.0923 23.5738ZM26.2426 15.3882C28.1933 15.0637 29.6034 15.295 30.0143 16.0068C30.4253 16.7187 29.9206 18.0554 28.6642 19.5826C28.4172 19.8829 28.1462 20.1846 27.8545 20.486C27.1416 19.8474 26.3499 19.2193 25.4966 18.6157C25.4009 17.5752 25.2535 16.5751 25.0579 15.6371C25.4639 15.5355 25.8598 15.4519 26.2426 15.3882ZM25.612 20.5226C26.0266 20.8444 26.4208 21.1708 26.7921 21.5C26.4208 21.8291 26.0266 22.1556 25.612 22.4774C25.6217 22.1538 25.6269 21.8279 25.6269 21.5C25.6269 21.1721 25.6217 20.8462 25.612 20.5226ZM30.0143 26.9932C29.6034 27.705 28.1933 27.9363 26.2426 27.6118C25.8598 27.5481 25.4639 27.4645 25.0579 27.3629C25.2535 26.4249 25.4009 25.4248 25.4966 24.3843C26.3499 23.7807 27.1416 23.1525 27.8545 22.514C28.1462 22.8155 28.4172 23.1171 28.6642 23.4174C29.9207 24.9446 30.4253 26.2813 30.0143 26.9932ZM20.4999 19.3027C19.2884 19.3027 18.3027 20.2884 18.3027 21.5C18.3027 22.7116 19.2884 23.6973 20.4999 23.6973C21.7115 23.6973 22.6972 22.7116 22.6972 21.5C22.6972 20.2884 21.7116 19.3027 20.4999 19.3027ZM20.4999 22.2324C20.0961 22.2324 19.7675 21.9039 19.7675 21.5C19.7675 21.0961 20.0961 20.7676 20.4999 20.7676C20.9038 20.7676 21.2324 21.0961 21.2324 21.5C21.2324 21.9039 20.9038 22.2324 20.4999 22.2324Z" fill="url(#paint0_linear_461_4)"/>
<defs>
<linearGradient id="paint0_linear_461_4" x1="20.4999" y1="34" x2="20.4999" y2="9" gradientUnits="userSpaceOnUse">
<stop stop-color="#5558FF"/>
<stop offset="1" stop-color="#00C0FF"/>
</linearGradient>
</defs>
</svg>
