<svg width="123" height="151" viewBox="0 0 123 151" fill="none" xmlns="http://www.w3.org/2000/svg">
<path fill-rule="evenodd" clip-rule="evenodd" d="M116.199 75.6087C118.553 75.6087 120.833 75.2247 123 74.5052C121.277 74.0638 119.491 73.8316 117.661 73.8316H87.2408C82.2163 73.8316 77.5275 72.0822 73.5657 69.0572C74.4316 62.8964 76.8215 56.9903 80.7354 52.2346L100.178 28.609C101.843 26.586 103.231 24.3549 104.345 21.9846C102.87 23.1524 101.472 24.5228 100.178 26.0957L78.6671 52.2346C75.1143 56.5519 70.781 59.3433 66.2195 60.6088C63.2466 55.5082 61.5 49.2783 61.5 42.5527V9.14111C61.5 6.28018 61.184 3.50897 60.5919 0.876221C60.2286 2.96926 60.0375 5.13946 60.0375 7.36388V44.3299C60.0375 50.4355 58.5979 56.1325 56.1086 60.9471C51.0387 59.8945 46.1783 56.9903 42.2646 52.2345L22.8223 28.609C21.1575 26.586 19.3214 24.898 17.3708 23.5451C18.3319 25.3373 19.4596 27.0361 20.754 28.609L42.2646 54.7479C45.8174 59.0653 48.1146 64.3307 49.156 69.874C44.9585 73.486 39.8318 75.6087 34.297 75.6087H6.80147C4.4471 75.6087 2.16658 75.9929 0 76.7125C1.72245 77.1535 3.50838 77.3859 5.33895 77.3859H35.7595C40.7841 77.3859 45.4724 79.1354 49.4344 82.1605C48.5682 88.3207 46.1783 94.2268 42.2646 98.9828L22.8223 122.609C21.1575 124.632 19.7684 126.863 18.6551 129.233C20.1299 128.065 21.5279 126.694 22.8223 125.122L44.3329 98.9828C47.8857 94.6655 52.2189 91.8743 56.7807 90.6083C59.7532 95.7095 61.5 101.939 61.5 108.665V142.077C61.5 144.937 61.8161 147.708 62.4084 150.341C62.7712 148.248 62.9625 146.078 62.9625 143.854V106.887C62.9625 100.782 64.4022 95.0848 66.8917 90.2705C71.9612 91.3227 76.8215 94.2268 80.7354 98.9828L100.178 122.609C101.843 124.632 103.679 126.319 105.629 127.673C104.668 125.88 103.54 124.181 102.246 122.609L80.7354 96.4696C77.1825 92.1523 74.8855 86.8866 73.8443 81.3437C78.0417 77.7311 83.1683 75.6087 88.7033 75.6087H116.199Z" fill="#2DC97A"/>
<path fill-rule="evenodd" clip-rule="evenodd" d="M116.199 75.6087C118.553 75.6087 120.833 75.2247 123 74.5052C121.277 74.0638 119.491 73.8316 117.661 73.8316H87.2408C82.2163 73.8316 77.5275 72.0822 73.5657 69.0572C74.4316 62.8964 76.8215 56.9903 80.7354 52.2346L100.178 28.609C101.843 26.586 103.231 24.3549 104.345 21.9846C102.87 23.1524 101.472 24.5228 100.178 26.0957L78.6671 52.2346C75.1143 56.5519 70.781 59.3433 66.2195 60.6088C63.2466 55.5082 61.5 49.2783 61.5 42.5527V9.14111C61.5 6.28018 61.184 3.50897 60.5919 0.876221C60.2286 2.96926 60.0375 5.13946 60.0375 7.36388V44.3299C60.0375 50.4355 58.5979 56.1325 56.1086 60.9471C51.0387 59.8945 46.1783 56.9903 42.2646 52.2345L22.8223 28.609C21.1575 26.586 19.3214 24.898 17.3708 23.5451C18.3319 25.3373 19.4596 27.0361 20.754 28.609L42.2646 54.7479C45.8174 59.0653 48.1146 64.3307 49.156 69.874C44.9585 73.486 39.8318 75.6087 34.297 75.6087H6.80147C4.4471 75.6087 2.16658 75.9929 0 76.7125C1.72245 77.1535 3.50838 77.3859 5.33895 77.3859H35.7595C40.7841 77.3859 45.4724 79.1354 49.4344 82.1605C48.5682 88.3207 46.1783 94.2268 42.2646 98.9828L22.8223 122.609C21.1575 124.632 19.7684 126.863 18.6551 129.233C20.1299 128.065 21.5279 126.694 22.8223 125.122L44.3329 98.9828C47.8857 94.6655 52.2189 91.8743 56.7807 90.6083C59.7532 95.7095 61.5 101.939 61.5 108.665V142.077C61.5 144.937 61.8161 147.708 62.4084 150.341C62.7712 148.248 62.9625 146.078 62.9625 143.854V106.887C62.9625 100.782 64.4022 95.0848 66.8917 90.2705C71.9612 91.3227 76.8215 94.2268 80.7354 98.9828L100.178 122.609C101.843 124.632 103.679 126.319 105.629 127.673C104.668 125.88 103.54 124.181 102.246 122.609L80.7354 96.4696C77.1825 92.1523 74.8855 86.8866 73.8443 81.3437C78.0417 77.7311 83.1683 75.6087 88.7033 75.6087H116.199Z" fill="black" fill-opacity="0.2"/>
</svg>
