<svg width="17" height="20" viewBox="0 0 17 20" fill="none" xmlns="http://www.w3.org/2000/svg">
<path d="M15.1915 1.45449C13.1773 -0.0865192 10.2771 0.276908 8.71708 2.26662L8.49099 2.55696L8.26285 2.26662C6.70078 0.276908 3.80269 -0.0865192 1.78842 1.45449C-0.225846 2.99551 -0.593756 5.86028 0.966272 7.85001L2.65168 10.0001L0.966272 12.1502C-0.593756 14.1399 -0.225846 17.0027 1.78842 18.5457C2.62907 19.1893 3.62386 19.5 4.61045 19.5C5.98961 19.5 7.35233 18.8929 8.26079 17.7336L8.48688 17.4433L8.71297 17.7336C9.62351 18.8929 10.9862 19.5 12.3633 19.5C13.3499 19.5 14.3447 19.1873 15.1853 18.5457C17.1996 17.0047 17.5675 14.1399 16.0075 12.1502L14.3221 10.0001L16.0075 7.85001C17.5737 5.86028 17.2058 2.99754 15.1915 1.45449Z" fill="url(#paint0_linear_270_1285)"/>
<defs>
<linearGradient id="paint0_linear_270_1285" x1="0" y1="0.5" x2="17.8487" y2="4.48202" gradientUnits="userSpaceOnUse">
<stop stop-color="#2D9CDB"/>
<stop offset="1" stop-color="#2DC97A"/>
</linearGradient>
</defs>
</svg>
