<svg width="39" height="37" viewBox="0 0 39 37" fill="none" xmlns="http://www.w3.org/2000/svg">
<path d="M34.8948 1.85875C30.2681 -1.14217 23.6065 -0.434443 20.0231 3.44026L19.5037 4.00566L18.9797 3.44026C15.3916 -0.434443 8.73475 -1.14217 4.10799 1.85875C-0.518766 4.85968 -1.36385 10.4384 2.21952 14.3132L6.09089 18.5002L2.21952 22.6873C-1.36385 26.562 -0.518766 32.1369 4.10799 35.1417C6.03896 36.395 8.32398 37 10.5902 37C13.7581 37 16.8882 35.8178 18.975 33.5602L19.4943 32.9948L20.0136 33.5602C22.1051 35.8178 25.2353 37 28.3985 37C30.6646 37 32.9497 36.3911 34.8806 35.1417C39.5074 32.1408 40.3525 26.562 36.7691 22.6873L32.8978 18.5002L36.7691 14.3132C40.3666 10.4384 39.5215 4.86363 34.8948 1.85875Z" fill="#2DC97A"/>
<path d="M34.8948 1.85875C30.2681 -1.14217 23.6065 -0.434443 20.0231 3.44026L19.5037 4.00566L18.9797 3.44026C15.3916 -0.434443 8.73475 -1.14217 4.10799 1.85875C-0.518766 4.85968 -1.36385 10.4384 2.21952 14.3132L6.09089 18.5002L2.21952 22.6873C-1.36385 26.562 -0.518766 32.1369 4.10799 35.1417C6.03896 36.395 8.32398 37 10.5902 37C13.7581 37 16.8882 35.8178 18.975 33.5602L19.4943 32.9948L20.0136 33.5602C22.1051 35.8178 25.2353 37 28.3985 37C30.6646 37 32.9497 36.3911 34.8806 35.1417C39.5074 32.1408 40.3525 26.562 36.7691 22.6873L32.8978 18.5002L36.7691 14.3132C40.3666 10.4384 39.5215 4.86363 34.8948 1.85875Z" fill="black" fill-opacity="0.2"/>
</svg>
